<svg width="31" height="31" viewBox="0 0 31 31" fill="none" xmlns="http://www.w3.org/2000/svg">
<mask id="mask0_37_23" style="mask-type:luminance" maskUnits="userSpaceOnUse" x="0" y="0" width="31" height="31">
<path d="M0 0H30.2881V30.2881H0V0Z" fill="white"/>
</mask>
<g mask="url(#mask0_37_23)">
<path d="M30.1845 26.0761L28.2915 22.2901C28.2128 22.1339 28.0926 22.0026 27.9437 21.9108C27.7951 21.819 27.6239 21.7699 27.4492 21.7694H26.5025V14.1976C26.491 11.6627 25.6529 9.20071 24.1157 7.18537C22.5784 5.16979 20.4257 3.71048 17.9842 3.02898V1.89304C17.9842 1.39096 17.7848 0.90957 17.4298 0.554452C17.0747 0.199334 16.5933 0 16.0912 0H14.1982C13.6961 0 13.2147 0.199376 12.8596 0.554452C12.5044 0.909528 12.3051 1.39094 12.3051 1.89304V3.02898C9.86353 3.71048 7.711 5.16972 6.17366 7.18537C4.63644 9.20071 3.79851 11.6628 3.78679 14.1976V21.7694H2.84017C2.66545 21.7699 2.49425 21.819 2.3456 21.9108C2.19694 22.0026 2.07647 22.1339 1.9978 22.2901L0.1048 26.0761C-0.0426762 26.369 -0.0281155 26.7175 0.143548 26.9971C0.314981 27.2766 0.619329 27.4476 0.947148 27.4485H11.4913C11.7839 28.5255 12.5368 29.4183 13.5489 29.8887C14.5609 30.3593 15.7287 30.3593 16.7409 29.8887C17.7528 29.4183 18.5056 28.5255 18.7983 27.4485H29.3424C29.6705 27.4476 29.9746 27.2766 30.1463 26.9971C30.3177 26.7175 30.3325 26.369 30.1848 26.0761H30.1845ZM2.48025 25.5555L3.42663 23.6625H21.7699V21.7695H5.67926V14.1976C5.68771 11.9711 6.46176 9.81512 7.87147 8.09201C9.28118 6.36854 11.2409 5.18241 13.4216 4.73267C13.6421 4.69251 13.8412 4.57509 13.9833 4.40178C14.1254 4.22847 14.2015 4.01031 14.1977 3.78629V1.89329H16.0907V3.78629C16.0872 4.01033 16.163 4.22849 16.3051 4.40178C16.4474 4.57509 16.6463 4.69251 16.8669 4.73267C19.0475 5.18238 21.0073 6.36854 22.417 8.09201C23.8267 9.81524 24.6007 11.9713 24.6092 14.1976V22.7164C24.6092 22.9674 24.709 23.2083 24.8865 23.3857C25.0641 23.5632 25.3048 23.663 25.5558 23.663H26.862L27.8084 25.556L2.48025 25.5555Z" fill="black"/>
</g>
<path d="M8.51886 13.2513H10.4119C10.4119 9.62614 12.9674 9.46527 13.2512 9.46527L13.2515 7.57227C11.614 7.57227 8.5188 8.75539 8.5188 13.2513H8.51886Z" fill="black"/>
</svg>
