<svg width="40" height="40" viewBox="0 0 40 40" fill="none" xmlns="http://www.w3.org/2000/svg">
<path d="M19.5173 30.7975C13.3084 30.7975 8.23706 25.7567 8.23706 19.5173C8.23706 13.278 13.3087 8.23706 19.5173 8.23706C25.7259 8.23706 30.7975 13.2779 30.7975 19.5173C30.7972 25.7566 25.7259 30.7975 19.5173 30.7975ZM19.5173 9.46621C13.9844 9.46621 9.46621 13.9845 9.46621 19.5173C9.46621 25.0499 13.9845 29.5684 19.5173 29.5684C25.0499 29.5684 29.5684 25.0501 29.5684 19.5173C29.5684 13.9844 25.0501 9.46621 19.5173 9.46621Z" fill="black"/>
<path d="M19.2714 25.8491C17.8883 25.8491 16.5049 25.3574 15.1218 24.4044C14.876 24.2199 14.7839 23.8819 14.9373 23.6053L15.9824 21.6072C16.0745 21.4535 16.1974 21.3305 16.382 21.2997C16.5665 21.2689 16.7508 21.2997 16.8737 21.3919C17.8267 22.0681 18.6872 22.4061 19.3939 22.4061C19.7627 22.4061 20.0702 22.314 20.2853 22.1602C20.4698 22.0373 20.5311 21.8528 20.5311 21.5764C20.5311 21.2997 20.439 21.1155 20.2237 20.9617C19.947 20.7772 19.5474 20.6542 19.0248 20.6542C18.8097 20.6542 18.4409 20.7159 17.703 20.9309C17.5185 20.9925 17.3034 20.9617 17.1497 20.8388C16.9959 20.7159 16.9038 20.5313 16.9038 20.3471V18.5028C16.9038 18.349 16.9654 18.2261 17.0576 18.1032L18.3793 16.5664H16.1662C15.8283 16.5664 15.5516 16.2897 15.5516 15.9517V13.8002C15.5516 13.4622 15.8283 13.1855 16.1662 13.1855H23.0819C23.4199 13.1855 23.6966 13.4622 23.6966 13.8002V15.5521C23.6966 15.7058 23.6349 15.8596 23.5428 15.9517L21.8831 17.8573C22.4669 18.1031 22.9589 18.4719 23.3586 18.9331C23.9425 19.6402 24.2499 20.5007 24.2499 21.4229C24.2499 22.806 23.7582 23.8818 22.8361 24.6811C21.8225 25.4495 20.6543 25.8491 19.2714 25.8491ZM16.5049 21.9147L15.4598 23.9127C16.72 24.804 18.0109 25.2345 19.271 25.2345C20.5004 25.2345 21.5454 24.8965 22.3446 24.2202C23.1438 23.544 23.5435 22.6218 23.5435 21.4233C23.5435 20.6241 23.2976 19.9173 22.8059 19.3024C22.4063 18.8106 21.8529 18.4723 21.177 18.2573C21.0849 18.2265 20.9924 18.1343 20.9619 18.0422C20.9311 17.9501 20.9619 17.8272 21.0236 17.7655L22.9907 15.5217V13.7698H16.0751V15.9213H18.9644C19.0874 15.9213 19.1795 15.9829 19.2411 16.1058C19.3027 16.2288 19.2719 16.3517 19.2103 16.4438L17.4584 18.5031V20.3474C18.1039 20.1324 18.5956 20.0399 18.9644 20.0399C19.6407 20.0399 20.1633 20.1937 20.532 20.4395C20.9008 20.7162 21.0853 21.085 21.0853 21.5459C21.0853 22.0068 20.9316 22.376 20.5936 22.6218C20.2556 22.8677 19.856 22.9906 19.3335 22.9906C18.5333 23.0519 17.5807 22.6523 16.5048 21.9147L16.5049 21.9147Z" fill="black"/>
<path d="M19.5173 37.3449C9.68177 37.3449 1.68994 29.3531 1.68994 19.5176C1.68994 9.68201 9.68177 1.69019 19.5173 1.69019C19.8553 1.69019 20.132 1.96686 20.132 2.30485C20.132 2.64283 19.8553 2.91951 19.5173 2.91951C10.358 2.91951 2.91987 10.3577 2.91987 19.517C2.91987 28.6762 10.358 36.1144 19.5173 36.1144C28.6766 36.1144 36.1148 28.6762 36.1148 19.517C36.1148 19.179 36.3914 18.9023 36.7294 18.9023C37.0674 18.9023 37.3441 19.179 37.3441 19.517C37.3444 29.3525 29.3523 37.3443 19.5167 37.3443L19.5173 37.3449Z" fill="black"/>
<path d="M19.5173 39.0347C19.1793 39.0347 18.9026 38.758 18.9026 38.4201L18.9023 30.183C18.9023 29.845 19.179 29.5684 19.517 29.5684C19.855 29.5684 20.1317 29.845 20.1317 30.183V38.4201C20.132 38.7583 19.8553 39.0347 19.5173 39.0347Z" fill="black"/>
<path d="M19.5173 9.46636C19.1793 9.46636 18.9026 9.18968 18.9026 8.85169L18.9023 0.614662C18.9023 0.276677 19.179 0 19.517 0C19.855 0 20.1317 0.276677 20.1317 0.614662V8.85169C20.132 9.18998 19.8553 9.46636 19.5173 9.46636Z" fill="black"/>
<path d="M8.85169 20.1319H0.614662C0.276677 20.1319 0 19.8552 0 19.5172C0 19.1793 0.276677 18.9026 0.614662 18.9026H8.85169C9.18968 18.9026 9.46636 19.1793 9.46636 19.5172C9.46636 19.8552 9.18998 20.1319 8.85169 20.1319Z" fill="black"/>
<path d="M38.4201 20.1319H30.183C29.845 20.1319 29.5684 19.8552 29.5684 19.5172C29.5684 19.1793 29.845 18.9026 30.183 18.9026H38.4201C38.758 18.9026 39.0347 19.1793 39.0347 19.5172C39.0347 19.8552 38.7583 20.1319 38.4201 20.1319Z" fill="black"/>
</svg>
