<svg width="37" height="36" viewBox="0 0 37 36" fill="none" xmlns="http://www.w3.org/2000/svg">
<path d="M18.8956 16.3518H24.7095C25.2284 16.3518 25.7084 16.2478 25.9681 16.0792C26.2278 15.9106 26.2277 15.7028 25.9681 15.5342C25.7084 15.3656 25.2284 15.2617 24.7095 15.2617H18.8956C18.3763 15.2617 17.8963 15.3656 17.6366 15.5342C17.377 15.7029 17.377 15.9106 17.6366 16.0792C17.8963 16.2478 18.3763 16.3518 18.8956 16.3518Z" fill="black"/>
<path d="M17.442 13.0813H26.1629C26.9413 13.0813 27.6612 12.9773 28.0507 12.8087C28.4403 12.6401 28.4402 12.4323 28.0507 12.2637C27.6613 12.0951 26.9413 11.9912 26.1629 11.9912H17.442C16.6631 11.9912 15.9431 12.0951 15.5536 12.2637C15.1641 12.4323 15.1641 12.6401 15.5536 12.8087C15.943 12.9773 16.663 13.0813 17.442 13.0813Z" fill="black"/>
<path d="M17.442 19.6219H26.1629C26.9413 19.6219 27.6612 19.5179 28.0507 19.3492C28.4403 19.1806 28.4402 18.9729 28.0507 18.8042C27.6613 18.6356 26.9413 18.5317 26.1629 18.5317H17.442C16.6631 18.5317 15.9431 18.6356 15.5536 18.8042C15.1641 18.9729 15.1641 19.1806 15.5536 19.3492C15.943 19.5179 16.663 19.6219 17.442 19.6219Z" fill="black"/>
<path d="M1.54215 3.08456H2.34404C2.68606 3.07003 3.0235 3.16988 3.30278 3.36805C3.58169 3.56622 3.78713 3.85163 3.88621 4.17951L6.97015 14.2948L9.0981 22.529L7.15536 24.0708H7.15497C6.10594 24.8654 5.44523 26.0693 5.33769 27.3812C5.23057 28.6931 5.68737 29.9885 6.59329 30.943C7.4992 31.8975 8.76942 32.4209 10.0847 32.3819H12.3361C12.3361 33.4837 12.9237 34.5018 13.8779 35.0527C14.832 35.6036 16.0077 35.6036 16.9618 35.0527C17.916 34.5018 18.504 33.4837 18.504 32.3819H24.672C24.672 33.4837 25.2596 34.5018 26.2137 35.0527C27.1679 35.6036 28.3435 35.6036 29.2977 35.0527C30.2518 34.5018 30.8394 33.4837 30.8394 32.3819H32.3816C32.9325 32.3819 33.4413 32.088 33.7168 31.611C33.9923 31.1339 33.9923 30.5463 33.7168 30.0692C33.4414 29.5921 32.9325 29.2979 32.3816 29.2979H10.0846C9.65875 29.2991 9.2513 29.1235 8.95942 28.8136C8.66713 28.5033 8.5164 28.0863 8.5428 27.6612C8.56881 27.2358 8.76966 26.8406 9.09792 26.5686L10.7942 25.1653L10.7939 25.1657C11.7113 25.8497 12.8261 26.2174 13.9704 26.2139H29.1433C30.2498 26.243 31.3344 25.9006 32.2231 25.2407C33.1118 24.5811 33.7542 23.6427 34.0468 22.5752L36.8377 11.7812V11.7808C37.1235 10.4827 36.7998 9.125 35.9589 8.09546C34.9791 6.86739 33.4898 6.15654 31.9189 6.168H11.1948C10.0375 6.1592 8.91001 6.53298 7.98761 7.23192L6.76943 3.26917C6.47867 2.32228 5.89218 1.49361 5.09524 0.905183C4.29872 0.316778 3.33428 -0.000381622 2.34371 3.44607e-07H1.54183C0.990915 3.44607e-07 0.482116 0.294203 0.206611 0.771279C-0.0688948 1.24836 -0.0688458 1.83599 0.206611 2.31305C0.482067 2.79013 0.990895 3.08395 1.54183 3.08395L1.54215 3.08456ZM9.56022 9.9771L9.5606 9.97748C9.96843 9.50232 10.5691 9.23605 11.195 9.2525H31.9192C32.5447 9.23835 33.1442 9.50386 33.5536 9.97748C33.7984 10.2617 33.9006 10.6416 33.8313 11.0105L31.0404 21.8044H31.04C30.9146 22.2039 30.6605 22.5505 30.3177 22.7903C29.9746 23.0302 29.5618 23.1499 29.1436 23.1308H13.9707C13.5499 23.1534 13.1337 23.0355 12.7874 22.7953C12.4412 22.555 12.1849 22.2065 12.0586 21.8044L9.283 11.0104C9.21834 10.642 9.31973 10.2636 9.56075 9.97747L9.56022 9.9771Z" fill="black"/>
</svg>
