<svg width="34" height="34" viewBox="0 0 34 34" fill="none" xmlns="http://www.w3.org/2000/svg">
<path d="M13.4056 17.1516H2.53412C1.13847 17.1516 0 18.2901 0 19.6857V30.5572C0 31.9529 1.13847 33.0913 2.53412 33.0913H13.4056C14.8012 33.0913 15.9397 31.9529 15.9397 30.5572V19.7229C15.9764 18.2906 14.838 17.152 13.4056 17.152V17.1516ZM14.5808 30.5935C14.5808 31.2547 14.0665 31.7687 13.4056 31.7687H2.53412C1.8729 31.7687 1.35892 31.2544 1.35892 30.5935V19.722C1.35892 19.0608 1.8732 18.5468 2.53412 18.5468H13.4056C14.0668 18.5468 14.5808 19.0611 14.5808 19.722V30.5935Z" fill="black"/>
<path d="M13.4056 0H2.53412C1.13847 0 0 1.13847 0 2.53412V13.4056C0 14.8012 1.13847 15.9397 2.53412 15.9397H13.4056C14.8012 15.9397 15.9397 14.8012 15.9397 13.4056V2.53412C15.9764 1.13847 14.838 0 13.4056 0ZM14.5808 13.4054C14.5808 14.0667 14.0665 14.5806 13.4056 14.5806H2.53412C1.8729 14.5806 1.35892 14.0664 1.35892 13.4054V2.53398C1.35892 1.87276 1.8732 1.35877 2.53412 1.35877H13.4056C14.0668 1.35877 14.5808 1.87305 14.5808 2.53398V13.4054Z" fill="black"/>
<path d="M30.5938 0H19.7224C18.3267 0 17.1882 1.13847 17.1882 2.53412V13.4056C17.1882 14.8012 18.3267 15.9397 19.7224 15.9397H30.5938C31.9895 15.9397 33.1279 14.8012 33.1279 13.4056V2.53412C33.1279 1.13847 31.9895 0 30.5938 0ZM31.769 13.4054C31.769 14.0667 31.2547 14.5806 30.5938 14.5806H19.7224C19.0611 14.5806 18.5471 14.0664 18.5471 13.4054V2.53398C18.5471 1.87276 19.0614 1.35877 19.7224 1.35877H30.5938C31.255 1.35877 31.769 1.87305 31.769 2.53398V13.4054Z" fill="black"/>
<path d="M32.2465 18.1065C31.6955 17.8861 31.0713 17.9963 30.6672 18.4372L18.6942 30.3729C18.2901 30.777 18.1432 31.4012 18.3636 31.9522C18.584 32.5032 19.0983 32.8336 19.6858 32.8336H30.5937C31.9894 32.8336 33.1278 31.6951 33.1278 30.2995V19.4287C33.1278 18.841 32.7975 18.3267 32.2465 18.1065ZM31.7689 30.2997C31.7689 30.9609 31.2546 31.4749 30.5937 31.4749L19.7223 31.4752C19.7223 31.4752 19.6855 31.4752 19.6488 31.4384C19.6121 31.365 19.6488 31.365 19.6488 31.3282L31.6218 19.3917C31.6218 19.3917 31.6585 19.355 31.6952 19.355H31.732C31.7687 19.3917 31.7687 19.3917 31.7687 19.4284L31.7689 30.2997Z" fill="black"/>
</svg>
