<svg width="36" height="36" viewBox="0 0 36 36" fill="none" xmlns="http://www.w3.org/2000/svg">
<path d="M31.4248 22.0758C30.4157 21.0664 29.0471 20.4993 27.6198 20.4993C26.1926 20.4993 24.8239 21.0664 23.8148 22.0758L22.1351 23.7556H22.1354C19.8277 22.9926 17.7304 21.7001 16.0118 19.9814C14.2931 18.2627 13.0006 16.1656 12.2378 13.8575L13.9175 12.1777V12.178C14.9268 11.1689 15.4941 9.80024 15.4941 8.37287C15.4941 6.9455 14.9268 5.57688 13.9175 4.56772L10.6111 1.2588C9.68507 0.332777 8.38692 -0.120635 7.08557 0.0276569C5.78422 0.176193 4.62156 0.909943 3.92745 2.02084L1.16816 6.43943C-0.0474622 8.37843 -0.330852 10.7598 0.395718 12.9301C2.16707 18.2043 5.13622 22.9966 9.07036 26.9303C13.0045 30.8646 17.7961 33.8339 23.0706 35.6053C25.2408 36.3307 27.6219 36.0467 29.5608 34.8314L33.9792 32.072H33.9795C35.0903 31.3781 35.8241 30.2154 35.9723 28.914C36.1208 27.6123 35.6675 26.3145 34.7412 25.3881L31.4248 22.0758ZM33.5843 28.6373C33.5197 29.2124 33.1953 29.7262 32.7035 30.0313L28.2839 32.7907C26.9516 33.6254 25.3157 33.8201 23.8247 33.3212C18.9044 31.6697 14.4337 28.9008 10.7632 25.2314C7.09305 21.562 4.32271 17.0921 2.66992 12.1724C2.17016 10.6811 2.36483 9.04415 3.20035 7.7115L5.95964 3.29291C6.26533 2.80056 6.78001 2.47608 7.35593 2.41237C7.42856 2.40404 7.50149 2.40017 7.57441 2.40017C8.07716 2.40017 8.55938 2.59991 8.91447 2.95592L12.2209 6.26362C12.7802 6.82264 13.0945 7.5811 13.0945 8.37202C13.0945 9.16293 12.7802 9.92139 12.2209 10.4807L10.0242 12.6763V12.676C9.87296 12.8275 9.76492 13.0165 9.71133 13.2237C9.65776 13.4309 9.66073 13.6485 9.71937 13.8542C10.554 16.8139 12.134 19.5102 14.3084 21.6849C16.4825 23.8593 19.178 25.44 22.138 26.2752C22.3436 26.3342 22.5612 26.3368 22.7684 26.2833C22.9756 26.2297 23.1646 26.1216 23.3161 25.9704L25.5116 23.7736C26.0795 23.2312 26.8346 22.9288 27.6199 22.9288C28.4051 22.9288 29.1603 23.2312 29.7285 23.7736L33.0349 27.0802C33.4445 27.4886 33.6451 28.0616 33.5796 28.6364L33.5843 28.6373Z" fill="black"/>
</svg>
