<svg width="20" height="27" viewBox="0 0 20 27" fill="none" xmlns="http://www.w3.org/2000/svg">
<path d="M13.7812 7.93942V13.894C11.8125 13.894 9.84375 10.9167 9.84375 5.95457V0C1.96875 9.92428 7.61783e-08 13.894 7.61783e-08 17.8637C-0.000240272 19.8119 0.568262 21.717 1.63464 23.3417C2.70103 24.9664 4.21812 26.2387 5.99681 27C6.59856 24.3034 7.93021 21.8279 9.84375 19.8486C11.7573 21.8279 13.0889 24.3034 13.6907 27C15.4694 26.2387 16.9865 24.9664 18.0529 23.3417C19.1192 21.717 19.6877 19.8119 19.6875 17.8637C19.6875 13.894 17.4727 10.7758 13.7812 7.93942Z" fill="#D99726"/>
</svg>
