<svg width="30" height="28" viewBox="0 0 30 28" fill="none" xmlns="http://www.w3.org/2000/svg">
<path d="M28.7528 5.67576C28.1982 5.25954 27.4688 5.19503 26.8519 5.50331L21.2709 8.29468L16.2454 0.757323C15.5718 -0.252105 13.9056 -0.253101 13.2297 0.758296L8.20556 8.29465L2.62449 5.50329C2.00761 5.19469 1.27731 5.26049 0.723634 5.67574C0.170291 6.09196 -0.0951945 6.77363 0.0309011 7.45535L3.00342 23.5013C3.46729 26.0055 5.65147 27.8233 8.19778 27.8233H21.2787C23.825 27.8233 26.0092 26.0055 26.4731 23.5023L29.4456 7.45469C29.5713 6.77428 29.3059 6.09258 28.7525 5.67632L28.7528 5.67576ZM24.1889 23.0785C23.9293 24.4815 22.7056 25.5 21.2787 25.5H8.19775C6.77116 25.5 5.54738 24.4816 5.28747 23.0776L2.50101 8.03909L8.08431 10.8301C8.60718 11.0911 9.24444 10.9219 9.56991 10.4353L14.7383 2.68268L19.9063 10.4356C20.2318 10.9232 20.8691 11.0911 21.3919 10.8305L26.9753 8.03942L24.1889 23.0785Z" fill="black"/>
<path d="M14.7384 16.4282C14.0965 16.4282 13.5769 16.9475 13.5769 17.5897V20.6562C13.5769 21.2981 14.0962 21.8177 14.7384 21.8177C15.3802 21.8177 15.8998 21.2984 15.8998 20.6562V17.5897C15.8995 16.9478 15.3802 16.4282 14.7384 16.4282Z" fill="black"/>
</svg>
