<svg width="38" height="52" viewBox="0 0 38 52" fill="none" xmlns="http://www.w3.org/2000/svg">
<path d="M17.5 11.4678C17.5 16.428 18.484 20.5117 20.0566 23.4121C21.5977 26.2541 23.899 28.2586 26.5996 28.2588H28.0996V18.4531C33.5241 23.2043 36.5 28.2794 36.5 34.4043L36.4883 35.0518C36.3706 38.2845 35.3702 41.4264 33.5918 44.1299C32.0203 46.5188 29.8979 48.4753 27.4189 49.8447C26.042 45.0931 23.5257 40.742 20.0771 37.1826L19 36.0713L17.9229 37.1826C14.4742 40.742 11.957 45.093 10.5801 49.8447C8.10149 48.4753 5.97951 46.5186 4.4082 44.1299C2.51134 41.2462 1.49957 37.8638 1.5 34.4043L1.51074 33.7432C1.7123 27.328 4.94954 20.4424 17.5 4.3291V11.4678Z" stroke="#D99726" stroke-width="3"/>
</svg>
