<svg width="33" height="33" viewBox="0 0 33 33" fill="none" xmlns="http://www.w3.org/2000/svg">
<path d="M30.264 9.52874C30.1001 8.91959 29.779 8.36419 29.3329 7.91812C28.8868 7.47206 28.3314 7.15098 27.7223 6.98702C25.479 6.37988 16.4646 6.37988 16.4646 6.37988C16.4646 6.37988 7.45026 6.37988 5.20696 6.98702C4.59781 7.15098 4.04241 7.47206 3.59635 7.91812C3.15028 8.36419 2.8292 8.91959 2.66524 9.52874C2.24558 11.8165 2.04231 14.1386 2.05811 16.4644C2.04231 18.7903 2.24558 21.1124 2.66524 23.4002C2.8292 24.0093 3.15028 24.5647 3.59635 25.0108C4.04241 25.4568 4.59781 25.7779 5.20696 25.9419C7.45026 26.549 16.4646 26.549 16.4646 26.549C16.4646 26.549 25.479 26.549 27.7223 25.9419C28.3314 25.7779 28.8868 25.4568 29.3329 25.0108C29.779 24.5647 30.1001 24.0093 30.264 23.4002C30.6837 21.1124 30.887 18.7903 30.8712 16.4644C30.887 14.1386 30.6837 11.8165 30.264 9.52874ZM13.5833 20.7864V12.1425L21.0644 16.4644L13.5833 20.7864Z" fill="#A7A7A7"/>
</svg>
