<svg width="33" height="33" viewBox="0 0 33 33" fill="none" xmlns="http://www.w3.org/2000/svg">
<path d="M27.4444 4.11621H5.48471C5.12256 4.1189 4.77601 4.26396 4.51992 4.52005C4.26384 4.77613 4.11878 5.12268 4.11609 5.48483V27.4445C4.11878 27.8066 4.26384 28.1532 4.51992 28.4093C4.77601 28.6654 5.12256 28.8104 5.48471 28.8131H17.3083V19.2636H14.0978V15.5282H17.3083V12.7807C17.3083 9.59069 19.2532 7.85162 22.114 7.85162C23.071 7.85162 24.028 7.85162 24.985 7.99568V11.3195H23.0195C21.4657 11.3195 21.1672 12.0604 21.1672 13.1409V15.5179H24.8718L24.3881 19.2533H21.1672V28.8131H27.4444C27.8065 28.8104 28.1531 28.6654 28.4091 28.4093C28.6652 28.1532 28.8103 27.8066 28.813 27.4445V5.48483C28.8103 5.12268 28.6652 4.77613 28.4091 4.52005C28.1531 4.26396 27.8065 4.1189 27.4444 4.11621Z" fill="#A7A7A7"/>
</svg>
