<svg width="33" height="33" viewBox="0 0 33 33" fill="none" xmlns="http://www.w3.org/2000/svg">
<path d="M11.8833 26.5001C21.2022 26.5001 26.3001 18.7792 26.3001 12.0833C26.3001 11.8641 26.3001 11.6459 26.2846 11.4288C27.2768 10.7115 28.133 9.82289 28.813 8.80477C27.8885 9.2154 26.9075 9.48459 25.9029 9.6033C26.9605 8.96986 27.7519 7.97367 28.1297 6.8002C27.135 7.38968 26.0472 7.80552 24.9129 8.0299C24.1489 7.21752 23.1385 6.67958 22.0379 6.49932C20.9374 6.31906 19.8081 6.50653 18.8249 7.03273C17.8416 7.55892 17.0592 8.3945 16.5987 9.41017C16.1381 10.4258 16.0252 11.565 16.2773 12.6513C14.2628 12.5503 12.2921 12.0269 10.4931 11.115C8.69404 10.2031 7.10687 8.92301 5.83458 7.35794C5.18729 8.4736 4.98926 9.79393 5.28078 11.0504C5.57229 12.3069 6.33145 13.4051 7.40386 14.1218C6.59748 14.0972 5.80877 13.8795 5.10396 13.4869V13.5517C5.10428 14.7215 5.5092 15.8552 6.25004 16.7605C6.99088 17.6659 8.02204 18.2871 9.16866 18.5189C8.42286 18.7227 7.64017 18.7523 6.88111 18.6053C7.20485 19.6121 7.83515 20.4926 8.68386 21.1236C9.53258 21.7546 10.5573 22.1046 11.6147 22.1246C10.564 22.9501 9.361 23.5604 8.07433 23.9206C6.78766 24.2808 5.44261 24.3839 4.11609 24.2239C6.43302 25.7112 9.12902 26.5003 11.8822 26.497" fill="#A7A7A7"/>
</svg>
