<svg width="33" height="33" viewBox="0 0 33 33" fill="none" xmlns="http://www.w3.org/2000/svg">
<path d="M23.0566 11.3543C23.875 11.3543 24.5384 10.6908 24.5384 9.87244C24.5384 9.05406 23.875 8.39062 23.0566 8.39062C22.2382 8.39062 21.5748 9.05406 21.5748 9.87244C21.5748 10.6908 22.2382 11.3543 23.0566 11.3543Z" fill="#A7A7A7"/>
<path d="M16.4646 10.124C15.2105 10.124 13.9845 10.4959 12.9418 11.1927C11.899 11.8894 11.0863 12.8797 10.6063 14.0384C10.1264 15.197 10.0008 16.472 10.2455 17.702C10.4902 18.932 11.0941 20.0619 11.9809 20.9487C12.8677 21.8355 13.9975 22.4394 15.2275 22.684C16.4576 22.9287 17.7325 22.8031 18.8912 22.3232C20.0498 21.8433 21.0401 21.0305 21.7369 19.9878C22.4336 18.945 22.8055 17.7191 22.8055 16.465C22.8058 15.6322 22.642 14.8075 22.3234 14.0381C22.0048 13.2686 21.5378 12.5695 20.9489 11.9806C20.36 11.3918 19.6609 10.9247 18.8915 10.6061C18.122 10.2876 17.2974 10.1238 16.4646 10.124ZM16.4646 20.5811C15.6505 20.5811 14.8547 20.3397 14.1778 19.8874C13.5009 19.4351 12.9733 18.7923 12.6618 18.0401C12.3502 17.288 12.2687 16.4604 12.4275 15.6619C12.5864 14.8635 12.9784 14.13 13.554 13.5544C14.1297 12.9787 14.8631 12.5867 15.6616 12.4279C16.46 12.2691 17.2876 12.3506 18.0398 12.6621C18.7919 12.9737 19.4348 13.5012 19.887 14.1781C20.3393 14.855 20.5807 15.6509 20.5807 16.465C20.5807 17.5566 20.1471 18.6036 19.3751 19.3755C18.6032 20.1474 17.5563 20.5811 16.4646 20.5811Z" fill="#A7A7A7"/>
<path d="M16.4646 6.34099C19.7616 6.34099 20.1527 6.35334 21.4544 6.41302C22.2374 6.42146 23.0131 6.56524 23.7471 6.83801C24.2796 7.04378 24.7633 7.35862 25.167 7.76231C25.5706 8.166 25.8855 8.64963 26.0912 9.18216C26.364 9.91618 26.5078 10.6918 26.5162 11.4749C26.5759 12.7766 26.5883 13.1676 26.5883 16.4657C26.5883 19.7638 26.5759 20.1527 26.5162 21.4545C26.5078 22.2375 26.364 23.0131 26.0912 23.7472C25.8855 24.2797 25.5706 24.7633 25.167 25.167C24.7633 25.5707 24.2796 25.8855 23.7471 26.0913C23.0131 26.3641 22.2374 26.5079 21.4544 26.5163C20.1527 26.576 19.7616 26.5883 16.4646 26.5883C13.1676 26.5883 12.7765 26.576 11.4748 26.5163C10.6918 26.5079 9.91612 26.3641 9.1821 26.0913C8.64957 25.8855 8.16594 25.5707 7.76225 25.167C7.35856 24.7633 7.04372 24.2797 6.83795 23.7472C6.56518 23.0131 6.42139 22.2375 6.41296 21.4545C6.35328 20.1527 6.34093 19.7617 6.34093 16.4647C6.34093 13.1676 6.35328 12.7766 6.41296 11.4749C6.42139 10.6918 6.56518 9.91618 6.83795 9.18216C7.04372 8.64963 7.35856 8.166 7.76225 7.76231C8.16594 7.35862 8.64957 7.04378 9.1821 6.83801C9.91612 6.56524 10.6918 6.42146 11.4748 6.41302C12.7765 6.35334 13.1676 6.34099 16.4646 6.34099ZM16.4646 4.11621C13.111 4.11621 12.6901 4.13062 11.3729 4.1903C10.3488 4.21084 9.33555 4.405 8.37636 4.7645C7.55607 5.08198 6.81109 5.56722 6.18913 6.18919C5.56716 6.81115 5.08191 7.55613 4.76444 8.37643C4.40482 9.33594 4.21067 10.3495 4.19024 11.374C4.13056 12.6912 4.11615 13.11 4.11615 16.4647C4.11615 19.8193 4.13056 20.2392 4.19024 21.5563C4.21078 22.5805 4.40494 23.5937 4.76444 24.5529C5.08191 25.3732 5.56716 26.1182 6.18913 26.7401C6.81109 27.3621 7.55607 27.8473 8.37636 28.1648C9.33588 28.5244 10.3495 28.7186 11.374 28.739C12.6911 28.7987 13.111 28.8131 16.4646 28.8131C19.8182 28.8131 20.2391 28.7987 21.5563 28.739C22.5808 28.7186 23.5943 28.5244 24.5539 28.1648C25.3742 27.8473 26.1191 27.3621 26.7411 26.7401C27.3631 26.1182 27.8483 25.3732 28.1658 24.5529C28.5251 23.5933 28.7189 22.5797 28.739 21.5553C28.7986 20.2381 28.813 19.8193 28.813 16.4647C28.813 13.11 28.7986 12.6902 28.739 11.373C28.7184 10.3488 28.5243 9.33561 28.1648 8.37643C27.8473 7.55613 27.362 6.81115 26.7401 6.18919C26.1181 5.56722 25.3731 5.08198 24.5528 4.7645C23.5933 4.40524 22.5797 4.21143 21.5552 4.19133C20.2381 4.12959 19.8193 4.11621 16.4646 4.11621Z" fill="#A7A7A7"/>
</svg>
