<svg width="9" height="17" viewBox="0 0 9 17" fill="none" xmlns="http://www.w3.org/2000/svg">
<mask id="mask0_123_69" style="mask-type:luminance" maskUnits="userSpaceOnUse" x="0" y="0" width="9" height="17">
<path d="M6.10352e-05 0H8.83643V16.1825H6.10352e-05V0Z" fill="white"/>
</mask>
<g mask="url(#mask0_123_69)">
<path d="M4.81831 16.1826V8.78153C7.06109 8.57911 8.81891 6.69647 8.81891 4.40092C8.81891 1.971 6.84819 0.000488281 4.41848 0.000488281C1.9884 0.000488281 0.0176392 1.9712 0.0176392 4.40092C0.0176392 6.69565 1.77542 8.5792 4.01824 8.78153V16.1826H4.81831ZM2.41791 4.40092C2.41791 4.5377 2.43227 4.67141 2.45872 4.80109H1.65853C1.63869 4.66899 1.61789 4.5377 1.61789 4.40092C1.61789 2.99346 2.66516 1.8373 4.01828 1.64133V2.44151C3.10599 2.62717 2.41791 3.43445 2.41791 4.40092Z" fill="#2E2E2E"/>
</g>
</svg>
