<svg width="34" height="25" viewBox="0 0 34 25" fill="none" xmlns="http://www.w3.org/2000/svg">
<mask id="mask0_31_671" style="mask-type:luminance" maskUnits="userSpaceOnUse" x="0" y="0" width="34" height="5">
<path d="M0 0H33.0839V4.3166H0V0Z" fill="white"/>
</mask>
<g mask="url(#mask0_31_671)">
<path d="M1.65496 4.30456H31.4305C32.0215 4.30456 32.5676 3.89823 32.8631 3.23862C33.1586 2.57869 33.1586 1.76607 32.8631 1.10647C32.5676 0.446879 32.0215 0.0405273 31.4305 0.0405273H1.65496C1.06395 0.0405273 0.517863 0.446862 0.22236 1.10647C-0.0731434 1.76607 -0.0731434 2.57877 0.22236 3.23862C0.517863 3.89821 1.06395 4.30456 1.65496 4.30456Z" fill="black"/>
</g>
<mask id="mask1_31_671" style="mask-type:luminance" maskUnits="userSpaceOnUse" x="0" y="20" width="34" height="5">
<path d="M0 20.6729H33.0839V24.9894H0V20.6729Z" fill="white"/>
</mask>
<g mask="url(#mask1_31_671)">
<path d="M31.4298 20.6846H1.65423C1.06322 20.6846 0.517131 21.0909 0.221628 21.7509C-0.0738758 22.4104 -0.0738758 23.2232 0.221628 23.8827C0.517131 24.5427 1.06322 24.949 1.65423 24.949H31.4298C32.0208 24.949 32.5669 24.5427 32.8624 23.8827C33.1579 23.2232 33.1579 22.4104 32.8624 21.7509C32.5669 21.0909 32.0208 20.6846 31.4298 20.6846Z" fill="black"/>
</g>
<mask id="mask2_31_671" style="mask-type:luminance" maskUnits="userSpaceOnUse" x="0" y="10" width="34" height="5">
<path d="M0 10.2939H33.0839V14.6952H0V10.2939Z" fill="white"/>
</mask>
<g mask="url(#mask2_31_671)">
<path d="M31.4298 10.3628H1.65423C1.06322 10.3628 0.517131 10.7691 0.221628 11.4287C-0.0738758 12.0883 -0.0738758 12.9013 0.221628 13.5609C0.517131 14.2205 1.06322 14.6268 1.65423 14.6268H31.4298C32.0208 14.6268 32.5669 14.2205 32.8624 13.5609C33.1579 12.9013 33.1579 12.0883 32.8624 11.4287C32.5669 10.7691 32.0208 10.3628 31.4298 10.3628Z" fill="black"/>
</g>
</svg>
