<svg width="49" height="56" viewBox="0 0 49 56" fill="none" xmlns="http://www.w3.org/2000/svg">
<path d="M48.8471 13.6606L48.7309 6.43127V6.36585L48.7303 6.36529C48.7191 5.78276 48.3987 5.24986 47.8895 4.96678C47.3803 4.6837 46.7583 4.69272 46.2575 4.99103C44.6216 5.94066 42.8013 6.5282 40.919 6.71486C38.9707 6.90602 37.0038 6.76843 35.1005 6.30715C33.1605 5.83289 31.302 5.07048 29.5876 4.04528C27.8389 3.00993 26.2571 1.71513 24.8964 0.204953C24.778 0.0775083 24.6122 0.00420227 24.4385 0.00137277C24.2524 -0.0110333 24.0702 0.0611482 23.9439 0.19762C22.5832 1.70779 21.0014 3.00258 19.2527 4.03795C17.5384 5.06315 15.6797 5.82558 13.7394 6.29981C11.8367 6.7611 9.86974 6.89869 7.92085 6.70752C6.05207 6.51805 4.24408 5.93327 2.61885 4.99091C2.37468 4.85162 2.10004 4.77437 1.81865 4.76535C0.918075 4.75294 0.176528 5.47193 0.160792 6.37253V6.43061L0.0446256 13.66L0.00120412 20.882L0.000640208 20.8826C-0.0298116 25.964 1.02641 30.993 3.0988 35.6321C5.19436 40.2049 8.16953 44.3198 11.8558 47.7416C13.6609 49.4367 15.6075 50.9746 17.6743 52.3387C18.6928 53.0222 19.7546 53.6549 20.8311 54.2441C21.3691 54.5424 21.9223 54.8188 22.475 55.0878L23.3186 55.4735L23.7404 55.6551L23.9586 55.7498L24.0675 55.7932H24.1256C24.2812 55.871 24.4645 55.871 24.6201 55.7932H24.6782L24.787 55.7498L25.0053 55.6551L25.4271 55.4735L26.2707 55.0878C26.8233 54.8188 27.376 54.5425 27.9146 54.2441C28.9911 53.6548 30.0529 53.0221 31.0713 52.3387C33.138 50.9746 35.0847 49.4367 36.8899 47.7416C40.6286 44.3334 43.6539 40.2173 45.7924 35.6321C47.8647 30.9927 48.921 25.9637 48.8905 20.8826L48.8471 13.6606ZM45.2758 20.8827C45.2567 23.1744 45.035 25.4594 44.6138 27.7123C44.1683 29.9532 43.5057 32.1452 42.6356 34.2577C40.8124 38.5232 38.258 42.4373 35.0865 45.8224C33.4996 47.5423 31.7989 49.1534 29.9948 50.6444C29.0711 51.3718 28.14 52.0993 27.173 52.8261C26.6931 53.1752 26.1985 53.5023 25.7181 53.8372L24.9906 54.3171L24.6196 54.5427L24.5034 54.6154L24.3872 54.5427L24.0162 54.3171L23.2887 53.8372C22.8015 53.5028 22.3069 53.1752 21.8338 52.8261C20.8667 52.1427 19.9358 51.4152 19.012 50.6444H19.0125C17.2086 49.1534 15.5079 47.5423 13.9215 45.8224C10.7094 42.4485 8.11419 38.5366 6.25553 34.2649C5.38541 32.1524 4.72283 29.96 4.27733 27.7195C3.85608 25.4667 3.63447 23.181 3.6153 20.8899L3.57921 13.6679L3.49913 8.93321V8.93265C4.86437 9.36461 6.27984 9.61893 7.70989 9.68942C9.98981 9.79713 12.2697 9.48698 14.4379 8.77305C16.5701 8.08282 18.5748 7.04864 20.3725 5.71098C21.925 4.55665 23.2953 3.1767 24.4383 1.61586C25.5785 3.17627 26.9466 4.55608 28.4962 5.71098C30.2945 7.04859 32.2993 8.08285 34.4314 8.77305C36.6013 9.48753 38.8841 9.79825 41.1662 9.68942C42.6041 9.61837 44.0268 9.36179 45.3989 8.92531L45.3188 13.66L45.2758 20.8827Z" fill="#D99726"/>
<path d="M38.9844 17.3259C37.3259 18.606 35.7333 19.9442 34.177 21.319C33.3914 22.0025 32.6206 22.7012 31.8571 23.3993C31.0935 24.0974 30.3226 24.8029 29.5732 25.523C28.053 26.9339 26.5766 28.4322 25.1003 29.8871C23.9511 31.051 22.8018 32.2143 21.6746 33.3929C21.2161 32.9564 20.7582 32.5273 20.2857 32.1055C19.4708 31.378 18.6711 30.6506 17.8416 29.9237C16.1978 28.4688 14.518 27.0506 12.7505 25.6982L12.75 25.6971C12.5532 25.5539 12.2814 25.5753 12.1094 25.7473C11.9368 25.9193 11.9159 26.1911 12.0592 26.3879C13.412 28.1332 14.8302 29.8136 16.2847 31.479C17.0121 32.3079 17.7395 33.1081 18.4664 33.923C19.1939 34.7379 19.9574 35.5302 20.7063 36.3304H20.7069C21.2071 36.8605 22.04 36.8893 22.5762 36.3958L22.649 36.3304C24.1693 34.9122 25.6236 33.4212 27.1073 31.9664C28.5909 30.5115 30.0165 29.0137 31.4714 27.4934C32.1989 26.766 32.9263 25.9877 33.5951 25.2096C34.2645 24.4314 34.9914 23.6752 35.6754 22.8897C37.0502 21.3334 38.3884 19.7403 39.6684 18.0823H39.6679C39.81 17.9064 39.81 17.6549 39.6679 17.4789C39.5991 17.3661 39.4874 17.2861 39.3583 17.2573C39.2297 17.2285 39.0944 17.2533 38.9844 17.3261L38.9844 17.3259Z" fill="#D99726"/>
</svg>
