<svg width="48" height="46" viewBox="0 0 48 46" fill="none" xmlns="http://www.w3.org/2000/svg">
<path d="M10.1769 28.6206L7.26385 41.3233C7.01739 42.4552 7.44349 43.6258 8.34173 44.2973C8.85694 44.6954 9.48497 44.9123 10.1278 44.9123L10.9786 44.8455L23.0418 38.563L34.2544 45.2657L35.1022 45.6578H35.7614C37.3664 45.6578 38.6967 44.3491 38.6967 42.7209L36.4652 29.3778L46.2524 20.8406C47.1388 20.0889 47.4951 18.8856 47.17 17.7833C46.8597 16.687 45.9288 15.8744 44.7841 15.6932L31.8983 13.7739L26.782 1.77968C26.3306 0.754668 25.3077 0.0579572 24.0739 0C22.9633 0 21.9507 0.635818 21.4519 1.64003L15.6361 13.2954L2.69075 14.4615C1.55345 14.5596 0.567609 15.3157 0.159281 16.4373C-0.205961 17.5024 0.0657522 18.673 0.883811 19.4782L10.1769 28.6206ZM18.6783 17.7433L23.9638 7.14257L28.6096 18.0286L40.327 19.78L31.4036 27.5807L33.3605 39.2584L23.2007 33.1813L12.7039 38.6557L15.3407 27.1118L6.89554 18.8061L18.6783 17.7433Z" fill="#D99726"/>
</svg>
