<svg width="60" height="45" viewBox="0 0 60 45" fill="none" xmlns="http://www.w3.org/2000/svg">
<path fill-rule="evenodd" clip-rule="evenodd" d="M7.10515 23.1578C7.4789 35.2218 17.3895 44.9 29.5419 44.9C35.7371 44.9 41.3492 42.3863 45.4127 38.3228C46.3408 37.3947 46.3408 35.8887 45.4127 34.9606C44.486 34.0325 42.9792 34.0325 42.0518 34.9606C38.8487 38.1637 34.4249 40.146 29.5419 40.146C20.0227 40.146 12.249 32.6143 11.862 23.1908L14.8822 26.2103C15.8103 27.1384 17.3163 27.1384 18.2431 26.2103C19.1712 25.2837 19.1712 23.7775 18.2431 22.8494L11.1477 15.7527C10.2188 14.8253 8.71359 14.8253 7.78623 15.7527L0.696087 22.8428C-0.232029 23.7709 -0.232029 25.2769 0.696087 26.205C1.6242 27.1317 3.13017 27.1317 4.05753 26.205L7.10515 23.1578Z" fill="#D99726"/>
<path fill-rule="evenodd" clip-rule="evenodd" d="M47.2229 21.7098L44.2019 18.6895C43.2738 17.7621 41.7678 17.7621 40.8397 18.6895C39.913 19.6176 39.913 21.1236 40.8397 22.051L47.9364 29.1477C48.8653 30.0758 50.3699 30.0758 51.2986 29.1477L58.388 22.0576C59.3161 21.1302 59.3161 19.6241 58.388 18.6961C57.4606 17.768 55.9545 17.768 55.0266 18.6961L51.9797 21.7422C51.6067 9.67898 41.6953 0 29.543 0C23.3478 0 17.7349 2.51448 13.6714 6.57778C12.7433 7.50589 12.7433 9.01186 13.6714 9.93922C14.5981 10.8673 16.1042 10.8673 17.0323 9.93922C20.2354 6.73611 24.6592 4.75381 29.543 4.75381C39.0608 4.75381 46.8343 12.2863 47.2229 21.709V21.7098Z" fill="#D99726"/>
</svg>
