<svg width="26" height="26" viewBox="0 0 26 26" fill="none" xmlns="http://www.w3.org/2000/svg">
<path d="M25.5406 23.8948L18.3103 16.6354C19.6917 14.8719 20.544 12.6675 20.544 10.2574C20.544 4.58505 15.9296 0 10.2866 0C4.64362 0 0 4.61457 0 10.2574C0 15.9002 4.61434 20.5148 10.2574 20.5148C12.6674 20.5148 14.8717 19.6919 16.6354 18.2811L23.8948 25.5406C24.13 25.7757 24.424 25.8933 24.7177 25.8933C25.0116 25.8933 25.3056 25.7758 25.5405 25.5406C26.0109 25.0996 26.0109 24.3356 25.5405 23.8946L25.5406 23.8948ZM2.35162 10.2574C2.35162 5.87827 5.90791 2.35156 10.2575 2.35156C14.607 2.35156 18.1633 5.90785 18.1633 10.2574C18.1633 14.6069 14.6364 18.193 10.2575 18.193C5.87833 18.193 2.35162 14.6367 2.35162 10.2574Z" fill="#C6C6C6"/>
<path d="M10.2576 3.96777C6.78941 3.96777 3.96753 6.78942 3.96753 10.2578C3.96753 10.9043 4.49667 11.4334 5.14316 11.4334C5.78965 11.4334 6.3188 10.9043 6.3188 10.2578C6.3188 8.0829 8.08236 6.31927 10.2573 6.31927C10.9038 6.31927 11.433 5.79013 11.433 5.14364C11.433 4.49714 10.9038 3.96801 10.2573 3.96801L10.2576 3.96777Z" fill="#C6C6C6"/>
</svg>
