<svg width="28" height="28" viewBox="0 0 28 28" fill="none" xmlns="http://www.w3.org/2000/svg">
<path fill-rule="evenodd" clip-rule="evenodd" d="M13.9813 7.18905C10.2307 7.18905 7.18984 10.2299 7.18984 13.9805C7.18984 17.7311 10.2307 20.7711 13.9813 20.7711C17.7319 20.7711 20.7719 17.7311 20.7719 13.9805C20.7719 10.2299 17.7319 7.18905 13.9813 7.18905ZM9.59981 0.0280514C8.76955 0.288538 7.97125 0.620803 7.21242 1.01789C6.97409 1.1426 6.85348 1.40143 6.91133 1.66315C7.22309 3.08126 6.82764 4.62286 5.7254 5.72467C4.62318 6.82773 3.08073 7.22237 1.66389 6.91059C1.40176 6.85357 1.1421 6.97417 1.01781 7.21168C0.621555 7.97098 0.288455 8.76967 0.027968 9.59991C-0.0524328 9.85629 0.0460197 10.125 0.272043 10.2698C1.49451 11.0512 2.30542 12.4209 2.30542 13.9806C2.30542 15.5402 1.49484 16.9099 0.271202 17.6913C0.0455904 17.8361 -0.0528607 18.1048 0.0279474 18.3612C0.288434 19.1915 0.621515 19.9898 1.01779 20.7486C1.14249 20.9869 1.40216 21.1075 1.66387 21.0497C3.08113 20.7387 4.62274 21.1334 5.72538 22.2364C6.82761 23.3387 7.22309 24.8803 6.9113 26.298C6.85346 26.5601 6.97407 26.8189 7.2124 26.9432C7.97088 27.3395 8.76955 27.6734 9.59979 27.9339C9.85617 28.0135 10.1248 27.9158 10.2697 27.6898C11.0519 26.4666 12.4216 25.6556 13.9813 25.6556C15.5401 25.6556 16.9098 26.4662 17.6912 27.6898C17.836 27.9162 18.1047 28.0139 18.3619 27.9331C19.1922 27.6726 19.9904 27.3395 20.7493 26.9432C20.9868 26.8185 21.1074 26.5597 21.0504 26.298C20.7386 24.8798 21.1332 23.3382 22.2363 22.2364C23.3385 21.1334 24.881 20.7387 26.2978 21.0497C26.5599 21.1075 26.8196 20.9869 26.9431 20.7486C27.3401 19.9901 27.6732 19.1914 27.9337 18.3612C28.0141 18.1048 27.9157 17.8361 27.6897 17.6913C26.4672 16.9099 25.6563 15.5402 25.6563 13.9806C25.6563 12.4209 26.466 11.0512 27.6897 10.2698C27.9161 10.125 28.0137 9.85629 27.9337 9.59991C27.6724 8.76965 27.3402 7.97135 26.9431 7.21168C26.8192 6.97417 26.5595 6.85356 26.2978 6.91059C24.8805 7.22235 23.3389 6.82773 22.2363 5.72467C21.1332 4.62244 20.7386 3.08084 21.0504 1.66315C21.1074 1.40103 20.9868 1.14219 20.7493 1.01789C19.9908 0.620814 19.1921 0.287719 18.3619 0.0280514C18.1047 -0.0523493 17.836 0.0452806 17.6912 0.271306C16.9097 1.49451 15.5401 2.30553 13.9813 2.30553C12.4216 2.30553 11.0519 1.49495 10.2697 0.271306C10.1248 0.0448753 9.85619 -0.0527568 9.59981 0.0280514Z" fill="black"/>
</svg>
