<svg width="57" height="46" viewBox="0 0 57 46" fill="none" xmlns="http://www.w3.org/2000/svg">
<path d="M52.265 12.1069C51.0248 10.2368 48.9326 9.11424 46.6928 9.11679H40.1834V6.71445C40.1819 4.93429 39.4755 3.22756 38.2198 1.96862C36.9646 0.709711 35.2621 0.00204705 33.4865 0H6.6974C4.92176 0.00199907 3.21936 0.709673 1.96362 1.96862C0.707884 3.22757 0.00204185 4.93429 0 6.71445V33.5718C0.00299106 35.139 0.552333 36.6558 1.55334 37.8593C2.55433 39.0632 3.94358 39.8778 5.48097 40.1627C5.79154 41.8865 6.76466 43.4192 8.19127 44.4307C9.61751 45.4422 11.3832 45.852 13.1079 45.5717C14.8328 45.2913 16.3786 44.3428 17.4129 42.9309C18.4398 44.3312 19.9702 45.2758 21.6801 45.5647C23.3895 45.8535 25.1443 45.4642 26.5724 44.4791C28.0006 43.4941 28.9906 41.9903 29.3326 40.2862H37.6401C38.0559 42.3377 39.4033 44.0769 41.2832 44.9885C43.1631 45.9001 45.3594 45.8796 47.2218 44.9325C49.0842 43.986 50.3992 42.2217 50.7765 40.1628C52.3134 39.8779 53.7028 39.0633 54.7036 37.8593C55.7046 36.6559 56.2539 35.139 56.257 33.5718V20.1431C56.2575 18.8173 55.8662 17.5214 55.1324 16.4184L52.265 12.1069ZM12.0546 42.9713C10.9888 42.9713 9.96692 42.547 9.21309 41.7913C8.45937 41.0362 8.03613 40.0112 8.03613 38.9426C8.03613 37.8746 8.45936 36.8496 9.21309 36.0939C9.96682 35.3387 10.9887 34.9139 12.0546 34.9139C13.1204 34.9139 14.1423 35.3387 14.8961 36.0939C15.6493 36.8495 16.073 37.8746 16.073 38.9426C16.0715 40.0111 15.6478 41.0351 14.8946 41.7903C14.1414 42.5455 13.1199 42.9703 12.0546 42.9713ZM22.7704 42.9713C21.7046 42.9713 20.6822 42.547 19.9289 41.7913C19.1751 41.0362 18.7519 40.0112 18.7519 38.9426C18.7519 37.8746 19.1751 36.8496 19.9289 36.0939C20.6821 35.3387 21.7045 34.9139 22.7704 34.9139C23.8362 34.9139 24.858 35.3387 25.6118 36.0939C26.3651 36.8495 26.7888 37.8746 26.7888 38.9426C26.7873 40.0111 26.3636 41.0351 25.6104 41.7903C24.8571 42.5455 23.8357 42.9703 22.7704 42.9713ZM37.5049 10.459V37.5991H29.3325C28.9905 35.8954 28.0004 34.3916 26.5723 33.4065C25.1441 32.4214 23.3894 32.0321 21.68 32.3209C19.9702 32.6098 18.4397 33.5544 17.4128 34.9542C16.4008 33.5723 14.8968 32.6333 13.2135 32.332C11.5296 32.0301 9.79476 32.3894 8.36802 33.3355C6.94128 34.2811 5.93235 35.7404 5.5495 37.4116C4.72248 37.1657 3.99667 36.6594 3.4797 35.9677C2.96226 35.2756 2.6816 34.435 2.67862 33.5704V6.7131C2.67961 5.64509 3.10333 4.62101 3.85657 3.86539C4.6103 3.11025 5.63171 2.68544 6.69705 2.68444H33.4861C34.5514 2.68544 35.5729 3.11024 36.3261 3.86539C37.0793 4.62104 37.5031 5.64505 37.5046 6.7131L37.5049 10.459ZM44.2018 42.9713C43.1365 42.9713 42.1141 42.547 41.3603 41.7913C40.607 41.0362 40.1833 40.0112 40.1833 38.9426C40.1833 37.8746 40.607 36.8496 41.3603 36.0939C42.114 35.3387 43.1364 34.9139 44.2018 34.9139C45.2676 34.9139 46.2899 35.3387 47.0432 36.0939C47.797 36.8495 48.2202 37.8746 48.2202 38.9426C48.2192 40.0111 47.7955 41.0351 47.0423 41.7903C46.289 42.5455 45.2676 42.9703 44.2018 42.9713ZM53.5781 33.5711C53.5751 34.4357 53.2944 35.2763 52.7775 35.9685C52.26 36.6601 51.5342 37.1664 50.7077 37.4123C50.2052 35.1988 48.6135 33.3942 46.4839 32.624C44.3542 31.8533 41.9799 32.2232 40.1833 33.605V24.1714H53.5779L53.5781 33.5711ZM53.5781 21.4852H40.1835V11.8021H46.6929C48.0364 11.8006 49.2921 12.4743 50.0358 13.5963L52.9032 17.9067C53.3439 18.5684 53.5787 19.3465 53.5782 20.1427L53.5781 21.4852ZM13.3944 9.3998V25.5139C13.3944 26.2556 12.7947 26.8568 12.055 26.8568C11.3152 26.8568 10.7155 26.2556 10.7155 25.5139V9.3998C10.7155 8.65814 11.3152 8.05694 12.055 8.05694C12.7947 8.05694 13.3944 8.65815 13.3944 9.3998ZM21.4313 9.3998V25.5139C21.4313 26.2556 20.8316 26.8568 20.0918 26.8568C19.352 26.8568 18.7524 26.2556 18.7524 25.5139V9.3998C18.7524 8.65814 19.3521 8.05694 20.0918 8.05694C20.8316 8.05694 21.4313 8.65815 21.4313 9.3998ZM29.4681 9.3998V25.5139C29.4681 26.2556 28.8684 26.8568 28.1287 26.8568C27.3889 26.8568 26.7892 26.2556 26.7892 25.5139V9.3998C26.7892 8.65814 27.3889 8.05694 28.1287 8.05694C28.8684 8.05694 29.4681 8.65815 29.4681 9.3998Z" fill="#D99726"/>
</svg>
