<svg width="15" height="15" viewBox="0 0 15 15" fill="none" xmlns="http://www.w3.org/2000/svg">
<path d="M6.57755 0.545165C6.94869 -0.182086 7.98784 -0.182086 8.35898 0.545165L9.93495 3.63329C10.0803 3.91801 10.3529 4.11611 10.6686 4.16632L14.0926 4.71088C14.8989 4.83912 15.22 5.82741 14.6431 6.40512L12.1931 8.85824C11.9672 9.08442 11.8631 9.40495 11.9129 9.7207L12.453 13.1454C12.5802 13.9519 11.7396 14.5627 11.0118 14.1925L7.92168 12.6205C7.63678 12.4755 7.29975 12.4755 7.01484 12.6205L3.9247 14.1925C3.19697 14.5627 2.35628 13.9519 2.48349 13.1454L3.02365 9.7207C3.07346 9.40495 2.96931 9.08442 2.74343 8.85824L0.293443 6.40512C-0.283525 5.82741 0.0375897 4.83912 0.843935 4.71088L4.26792 4.16632C4.58361 4.11611 4.85627 3.91801 5.00157 3.63329L6.57755 0.545165Z" fill="#D99726"/>
</svg>
