<svg width="36" height="30" viewBox="0 0 36 30" fill="none" xmlns="http://www.w3.org/2000/svg">
<path fill-rule="evenodd" clip-rule="evenodd" d="M6.20746 28.1031C6.20746 29.8079 7.85073 30.5859 9.19285 29.4979C9.19285 29.4979 12.4118 26.8878 13.6472 25.8893C15.0593 26.1436 16.5182 26.2737 18.0005 26.2737C27.8706 26.2737 36 20.4939 36 13.1368C36 5.77991 27.8702 0 18.0005 0C8.13004 0 0 5.77981 0 13.1368C0 17.0484 2.32483 20.6307 6.21449 23.0829C6.20722 23.5827 6.20722 28.1034 6.20722 28.1034L6.20746 28.1031ZM8.6899 21.6937L8.07625 21.3396C4.53265 19.2953 2.4831 16.3039 2.4831 13.1365C2.4831 7.3328 9.3597 2.44369 18.001 2.44369C26.6422 2.44369 33.5178 7.33249 33.5178 13.1365C33.5178 18.9407 26.6416 23.8294 18.001 23.8294C16.4809 23.8294 14.9914 23.6778 13.564 23.3825L12.9802 23.2615L12.5198 23.6348L8.69037 26.7627L8.6899 21.6937ZM18.9448 18.2968C18.6287 18.134 17.9928 18.134 17.6767 18.2968L15.6983 19.3164C14.3655 20.0028 13.1184 19.1146 13.3731 17.6605L13.7511 15.5016C13.8113 15.1566 13.6148 14.5641 13.3589 14.3197L11.7585 12.7907C10.6804 11.7609 11.1566 10.3242 12.6466 10.1121L14.8587 9.79694C15.212 9.7468 15.7262 9.38029 15.8843 9.0667L16.8734 7.10244C17.54 5.77928 19.0814 5.77928 19.7476 7.10244L20.7368 9.0667C20.8948 9.38028 21.4094 9.7468 21.7628 9.79694L23.9748 10.1121C25.4645 10.3242 25.941 11.7609 24.8629 12.7907L23.2621 14.3197C23.0066 14.564 22.8101 15.1566 22.8704 15.5016L23.2483 17.6605C23.5026 19.115 22.2555 20.0028 20.9231 19.3164L18.9448 18.2968Z" fill="black"/>
</svg>
