<svg width="34" height="30" viewBox="0 0 34 30" fill="none" xmlns="http://www.w3.org/2000/svg">
<mask id="mask0_33_13" style="mask-type:luminance" maskUnits="userSpaceOnUse" x="0" y="0" width="34" height="30">
<path d="M33.4485 0H9.91821e-05V29.7431H33.4485V0Z" fill="white"/>
</mask>
<g mask="url(#mask0_33_13)">
<path fill-rule="evenodd" clip-rule="evenodd" d="M16.8614 5.88523C16.8323 5.93839 16.7841 5.96718 16.7263 5.96718C16.6684 5.96718 16.6153 5.93814 16.5862 5.88523C14.3471 1.94247 10.9158 -1.10241 6.22526 0.475436C2.61552 1.69145 -0.000213623 5.2579 -0.000213623 9.46144C-0.000213623 15.4454 6.14326 20.3004 10.0905 24.1517L15.6451 29.2672C16.2579 29.8318 17.1894 29.8318 17.8022 29.2672L23.3568 24.1517C27.3091 20.3005 33.4475 15.4459 33.4475 9.46144C33.4475 5.14212 30.692 1.50383 26.9326 0.383816C22.348 -0.981844 19.0275 2.07287 16.8611 5.88543L16.8614 5.88523ZM16.7263 27.1628L11.6831 22.5204C8.3968 19.316 2.27755 14.4566 2.27755 9.46131C2.27755 6.46436 4.06313 3.60749 6.95399 2.63765C10.5396 1.42629 12.9766 4.1434 14.6082 7.00982C15.0426 7.77724 15.8484 8.24529 16.7267 8.24529C17.6051 8.24529 18.4109 7.77718 18.8453 7.00982C20.4137 4.24451 22.7929 1.52766 26.2824 2.56529C29.284 3.45818 31.1709 6.38741 31.1709 9.46131C31.1709 14.4562 25.0565 19.3157 21.8131 22.4766L16.7267 27.1626L16.7263 27.1628Z" fill="black"/>
</g>
</svg>
